<svg width="40" height="40" fill="none" xmlns="http://www.w3.org/2000/svg"><g clip-path="url(#a)"><path d="M36.667 0H3.333A3.333 3.333 0 0 0 0 3.333v33.334A3.333 3.333 0 0 0 3.333 40h33.334A3.333 3.333 0 0 0 40 36.667V3.333A3.333 3.333 0 0 0 36.667 0Z" fill="#F2EFFB"/><g clip-path="url(#b)" fill="#4E21E7"><path d="M27.143 16.614c0-1.007-.393-1.95-1.1-2.657a3.733 3.733 0 0 0-2.657-1.1c-1.007 0-1.95.393-2.657 1.1l-2.15 2.15a4.647 4.647 0 0 1 2.457.215l1.028-1.03c.35-.35.822-.542 1.322-.542.5 0 .971.193 1.321.543.35.35.543.821.543 1.321s-.193.972-.543 1.322L21.9 20.743a1.79 1.79 0 0 1-.714.443 1.931 1.931 0 0 1-.936.071 1.831 1.831 0 0 1-.993-.514 1.855 1.855 0 0 1-.514-.993c-.029.021-.057.05-.086.072l-1.386 1.385a3.797 3.797 0 0 0 1.522 1.522 3.77 3.77 0 0 0 1.793.45 3.723 3.723 0 0 0 2.657-1.093l2.807-2.807a3.733 3.733 0 0 0 1.1-2.657l-.007-.008Z"/><path opacity=".3" d="m18.964 23.679-1.028 1.028c-.35.35-.822.543-1.322.543-.5 0-.971-.193-1.321-.543a1.858 1.858 0 0 1-.543-1.321c0-.5.193-.972.543-1.322l2.807-2.807a1.79 1.79 0 0 1 .714-.443 1.931 1.931 0 0 1 .936-.071c.378.064.721.243.993.514.271.272.45.622.514.993.029-.021.057-.05.086-.071l1.386-1.386a3.795 3.795 0 0 0-1.522-1.521 3.77 3.77 0 0 0-1.793-.45 3.723 3.723 0 0 0-2.657 1.092l-2.807 2.807a3.785 3.785 0 0 0-1.093 2.665c0 1.007.393 1.95 1.1 2.657.707.707 1.65 1.1 2.657 1.1 1.007 0 1.95-.393 2.657-1.1l2.15-2.15a4.648 4.648 0 0 1-2.457-.214Z"/></g></g><defs><clipPath id="a"><path fill="#fff" d="M0 0h40v40H0z"/></clipPath><clipPath id="b"><path fill="#fff" transform="translate(12.857 12.857)" d="M0 0h14.286v14.286H0z"/></clipPath></defs></svg>