<svg xmlns="http://www.w3.org/2000/svg" xmlns:xlink="http://www.w3.org/1999/xlink" viewBox="0 0 900.74 444.67"><defs><style>.cls-1{fill:url(#linear-gradient);}.cls-2{fill:url(#linear-gradient-2);}.cls-3{fill:url(#linear-gradient-3);}.cls-4{fill:url(#linear-gradient-4);}.cls-5{fill:url(#linear-gradient-5);}.cls-6{fill:url(#linear-gradient-6);}.cls-7{fill:url(#linear-gradient-7);}.cls-8{fill:url(#linear-gradient-8);}.cls-9{fill:url(#linear-gradient-9);}.cls-10{fill:url(#linear-gradient-10);}.cls-11{fill:url(#linear-gradient-11);}.cls-12{fill:url(#linear-gradient-12);}.cls-13{fill:url(#linear-gradient-13);}.cls-14{fill:url(#linear-gradient-14);}.cls-15{fill:url(#linear-gradient-15);}.cls-16{fill:url(#linear-gradient-16);}.cls-17{fill:url(#linear-gradient-17);}.cls-18{fill:url(#linear-gradient-18);}.cls-19{fill:url(#linear-gradient-19);}.cls-20{fill:url(#linear-gradient-20);}.cls-21{fill:url(#linear-gradient-21);}.cls-22{fill:url(#linear-gradient-22);}.cls-23{fill:url(#linear-gradient-23);}.cls-24{fill:url(#linear-gradient-24);}.cls-25{fill:url(#linear-gradient-25);}.cls-26{fill:url(#linear-gradient-26);}.cls-27{fill:url(#linear-gradient-27);}.cls-28{fill:url(#linear-gradient-28);}.cls-29{fill:url(#linear-gradient-29);}.cls-30{fill:url(#linear-gradient-30);}.cls-31{fill:url(#linear-gradient-31);}.cls-32{fill:url(#linear-gradient-32);}.cls-33{fill:url(#linear-gradient-33);}.cls-34{fill:url(#linear-gradient-34);}.cls-35{fill:url(#linear-gradient-35);}.cls-36{fill:#fff;}</style><linearGradient id="linear-gradient" x1="-1934.28" y1="705.81" x2="-1933.28" y2="705.81" gradientTransform="matrix(-90.98, 177.8, 191.31, 0.51, -310916.11, 343648.92)" gradientUnits="userSpaceOnUse"><stop offset="0" stop-color="#c7d6ee"/><stop offset="0.18" stop-color="#91afc8"/><stop offset="1" stop-color="#002334"/></linearGradient><linearGradient id="linear-gradient-2" x1="-1928.29" y1="-654.77" x2="-1927.29" y2="-654.77" gradientTransform="matrix(111.37, -109.39, -109.39, -107.44, -174154.74, 30881.71)" gradientUnits="userSpaceOnUse"><stop offset="0" stop-color="#e1e8f5"/><stop offset="0.9" stop-color="#92a5c1"/><stop offset="0.95" stop-color="#476886"/><stop offset="1" stop-color="#e1e8f5"/></linearGradient><linearGradient id="linear-gradient-3" x1="-1932.45" y1="700.94" x2="-1931.45" y2="700.94" gradientTransform="matrix(113.94, -111.9, -111.9, -109.91, 298941.41, -139160.93)" gradientUnits="userSpaceOnUse"><stop offset="0" stop-color="#e1e8f5"/><stop offset="0.04" stop-color="#476886"/><stop offset="0.09" stop-color="#92a5c1"/><stop offset="1" stop-color="#e1e8f5"/></linearGradient><linearGradient id="linear-gradient-4" x1="-1927.88" y1="696.21" x2="-1926.88" y2="696.21" gradientTransform="matrix(37.1, -33.98, -33.98, -35.79, 95447.56, -40536.6)" gradientUnits="userSpaceOnUse"><stop offset="0" stop-color="#e1e8f5"/><stop offset="0.16" stop-color="#c7d6ee"/><stop offset="1" stop-color="#e1e8f5"/></linearGradient><linearGradient id="linear-gradient-5" x1="-1941.35" y1="709.05" x2="-1940.35" y2="709.05" gradientTransform="matrix(-39.28, -35.98, 35.98, -37.89, -101132.76, -42921.63)" xlink:href="#linear-gradient-4"/><linearGradient id="linear-gradient-6" x1="-1932.66" y1="701.19" x2="-1931.66" y2="701.19" gradientTransform="matrix(127.79, -125.51, -125.51, -123.27, 335114.39, -156006.49)" gradientUnits="userSpaceOnUse"><stop offset="0" stop-color="#476886"/><stop offset="0.13" stop-color="#92a5c1"/><stop offset="1" stop-color="#e1e8f5"/></linearGradient><linearGradient id="linear-gradient-7" x1="-1945.9" y1="688.48" x2="-1944.9" y2="688.48" gradientTransform="matrix(-14.97, -21.01, -21.01, 14.45, -14657.01, -50563.23)" gradientUnits="userSpaceOnUse"><stop offset="0" stop-color="#002334"/><stop offset="0.11" stop-color="#fff"/><stop offset="0.18" stop-color="#91afc8"/><stop offset="0.24" stop-color="#002334"/><stop offset="0.53" stop-color="#5e738f"/><stop offset="0.76" stop-color="#002334"/><stop offset="1" stop-color="#002334"/></linearGradient><linearGradient id="linear-gradient-8" x1="-1937.65" y1="705.13" x2="-1936.65" y2="705.13" gradientTransform="matrix(-115.32, 57.64, 57.64, 111.24, -263988.33, 33390.9)" gradientUnits="userSpaceOnUse"><stop offset="0" stop-color="#91afc8"/><stop offset="1" stop-color="#002334"/></linearGradient><linearGradient id="linear-gradient-9" x1="-1936.62" y1="693.83" x2="-1935.62" y2="693.83" gradientTransform="matrix(-8.84, -49.24, -49.24, 8.53, 17195.66, -101006.96)" gradientUnits="userSpaceOnUse"><stop offset="0" stop-color="#a5b9cc"/><stop offset="1" stop-color="#002334"/></linearGradient><linearGradient id="linear-gradient-10" x1="-1901.67" y1="701.25" x2="-1900.67" y2="701.25" gradientTransform="matrix(14.69, 0, 0, -14.17, 28219.29, 10231.89)" gradientUnits="userSpaceOnUse"><stop offset="0" stop-color="#5e738f"/><stop offset="0.49" stop-color="#91afc8"/><stop offset="1" stop-color="#91afc8"/></linearGradient><linearGradient id="linear-gradient-11" x1="-1960.9" y1="701.63" x2="-1959.9" y2="701.63" gradientTransform="translate(-35050.26 12603.43) rotate(180) scale(18.19 17.55)" gradientUnits="userSpaceOnUse"><stop offset="0" stop-color="#5e738f"/><stop offset="0.32" stop-color="#91afc8"/><stop offset="1" stop-color="#91afc8"/></linearGradient><linearGradient id="linear-gradient-12" x1="-1932.26" y1="698.81" x2="-1931.26" y2="698.81" gradientTransform="matrix(49.75, -84.64, -84.64, -48, 155796.19, -129648.49)" xlink:href="#linear-gradient-9"/><linearGradient id="linear-gradient-13" x1="-1931.79" y1="707.3" x2="-1930.79" y2="707.3" gradientTransform="matrix(50.14, 85.3, 85.3, -48.37, 36883.31, 199280.84)" gradientUnits="userSpaceOnUse"><stop offset="0" stop-color="#002334"/><stop offset="0.78" stop-color="#a5b9cc"/><stop offset="1" stop-color="#a5b9cc"/></linearGradient><linearGradient id="linear-gradient-14" x1="-1933.84" y1="704.13" x2="-1932.84" y2="704.13" gradientTransform="matrix(223.91, 380.91, 380.91, -216, 165001.33, 888767.27)" gradientUnits="userSpaceOnUse"><stop offset="0" stop-color="#ffefcf"/><stop offset="0.46" stop-color="#ffe4a6"/><stop offset="1" stop-color="#bc956e"/></linearGradient><linearGradient id="linear-gradient-15" x1="-1931.24" y1="699.13" x2="-1930.24" y2="699.13" gradientTransform="matrix(62.81, -68.76, -68.76, -60.59, 170041.49, -90139.15)" gradientUnits="userSpaceOnUse"><stop offset="0" stop-color="#5e738f"/><stop offset="0.61" stop-color="#91afc8"/><stop offset="1" stop-color="#c7dff4"/></linearGradient><linearGradient id="linear-gradient-16" x1="-1932.84" y1="705.68" x2="-1931.84" y2="705.68" gradientTransform="matrix(83.38, 141.85, 141.85, -80.44, 61788.96, 330946.17)" gradientUnits="userSpaceOnUse"><stop offset="0" stop-color="#e1e8f5"/><stop offset="0.81" stop-color="#7f97b4"/><stop offset="0.9" stop-color="#476886"/><stop offset="1" stop-color="#002334"/></linearGradient><linearGradient id="linear-gradient-17" x1="-1933.64" y1="701.6" x2="-1932.64" y2="701.6" gradientTransform="matrix(135.89, -231.17, -231.17, -131.08, 425740.07, -354765.72)" gradientUnits="userSpaceOnUse"><stop offset="0" stop-color="#8ca0b5"/><stop offset="0.14" stop-color="#e1e8f5"/><stop offset="0.81" stop-color="#7f97b4"/><stop offset="0.9" stop-color="#476886"/><stop offset="1" stop-color="#002334"/></linearGradient><linearGradient id="linear-gradient-18" x1="-1927.19" y1="698.36" x2="-1926.19" y2="698.36" gradientTransform="matrix(48.13, -27.29, -27.29, -46.43, 112575.14, -19912.61)" gradientUnits="userSpaceOnUse"><stop offset="0" stop-color="#002334"/><stop offset="0.81" stop-color="#a5b9cc"/><stop offset="0.89" stop-color="#002334"/><stop offset="1" stop-color="#002334"/></linearGradient><linearGradient id="linear-gradient-19" x1="-1932.81" y1="704.68" x2="-1931.81" y2="704.68" gradientTransform="matrix(157.42, 154.61, 154.62, -151.86, 195417.45, 406035.79)" gradientUnits="userSpaceOnUse"><stop offset="0" stop-color="#d4bc7b"/><stop offset="0.33" stop-color="#7f5f39"/><stop offset="1" stop-color="#d4bc7b"/></linearGradient><linearGradient id="linear-gradient-20" x1="-1936.45" y1="700.91" x2="-1935.45" y2="700.91" gradientTransform="matrix(-112.44, 110.44, -110.44, -108.47, -139597.49, 290084.68)" xlink:href="#linear-gradient-19"/><linearGradient id="linear-gradient-21" x1="-1935.68" y1="701.79" x2="-1934.68" y2="701.79" gradientTransform="matrix(-181.75, 178.51, -178.51, -175.32, -225722.33, 468587.94)" xlink:href="#linear-gradient-19"/><linearGradient id="linear-gradient-22" x1="-1914.16" y1="702" x2="-1913.16" y2="702" gradientTransform="matrix(23.74, 0, 0, -22.9, 45738.46, 16352.28)" gradientUnits="userSpaceOnUse"><stop offset="0" stop-color="#d3bd8b"/><stop offset="1" stop-color="#7f5f39"/></linearGradient><linearGradient id="linear-gradient-23" x1="-1954.71" y1="702" x2="-1953.71" y2="702" gradientTransform="translate(-45811.61 16354.94) rotate(180) scale(23.74 22.9)" xlink:href="#linear-gradient-22"/><linearGradient id="linear-gradient-24" x1="-1931.43" y1="707.86" x2="-1930.43" y2="707.86" gradientTransform="matrix(44.12, 75.06, 75.06, -42.57, 32451.34, 175392.61)" gradientUnits="userSpaceOnUse"><stop offset="0" stop-color="#7f5f39"/><stop offset="0.65" stop-color="#d3bd8b"/><stop offset="0.89" stop-color="#ffe4a6"/><stop offset="1" stop-color="#ffe4a6"/></linearGradient><linearGradient id="linear-gradient-25" x1="-1936.67" y1="707.77" x2="-1935.67" y2="707.77" gradientTransform="matrix(-48.2, 82, 82, 46.5, -150857.45, 126183.35)" gradientUnits="userSpaceOnUse"><stop offset="0" stop-color="#7f5f39"/><stop offset="0.46" stop-color="#d3bd8b"/><stop offset="0.89" stop-color="#ffe4a6"/><stop offset="1" stop-color="#ffe4a6"/></linearGradient><linearGradient id="linear-gradient-26" x1="-1932.21" y1="700.67" x2="-1931.21" y2="700.67" gradientTransform="matrix(101.9, -100.08, -100.08, -98.29, 267343.84, -124444.51)" gradientUnits="userSpaceOnUse"><stop offset="0" stop-color="#d4bc7b"/><stop offset="0.04" stop-color="#7f5f39"/><stop offset="0.11" stop-color="#d1ac75"/><stop offset="1" stop-color="#d4bc7b"/></linearGradient><linearGradient id="linear-gradient-27" x1="-1936.89" y1="705.44" x2="-1935.89" y2="705.44" gradientTransform="matrix(-103.68, -101.83, 101.83, -100.01, -272080.57, -126617.64)" xlink:href="#linear-gradient-26"/><linearGradient id="linear-gradient-28" x1="-1928.01" y1="696.35" x2="-1927.01" y2="696.35" gradientTransform="matrix(37.89, -34.7, -34.7, -36.55, 97505.16, -41386.34)" gradientUnits="userSpaceOnUse"><stop offset="0" stop-color="#ffe292"/><stop offset="0.16" stop-color="#d1ac75"/><stop offset="1" stop-color="#ffe292"/></linearGradient><linearGradient id="linear-gradient-29" x1="-1941.31" y1="709.01" x2="-1940.31" y2="709.01" gradientTransform="matrix(-39.5, -36.18, 36.18, -38.1, -101717.16, -43146.04)" xlink:href="#linear-gradient-28"/><linearGradient id="linear-gradient-30" x1="-1932.52" y1="701.03" x2="-1931.52" y2="701.03" gradientTransform="matrix(118.36, -116.25, -116.25, -114.18, 310397.74, -144483.88)" gradientUnits="userSpaceOnUse"><stop offset="0" stop-color="#7f5f39"/><stop offset="1" stop-color="#bd9b6a"/></linearGradient><linearGradient id="linear-gradient-31" x1="-1929.37" y1="707.8" x2="-1928.37" y2="707.8" gradientTransform="matrix(50.36, 49.46, 49.46, -48.58, 62955.42, 129964)" gradientUnits="userSpaceOnUse"><stop offset="0" stop-color="#7f5f39"/><stop offset="1" stop-color="#d4bc7b"/></linearGradient><linearGradient id="linear-gradient-32" x1="-1933.62" y1="701.36" x2="-1932.62" y2="701.36" gradientTransform="matrix(111.12, -210.22, -210.22, -107.19, 363094.86, -331058.48)" gradientUnits="userSpaceOnUse"><stop offset="0" stop-color="#a78a5e"/><stop offset="0.76" stop-color="#7f5f39"/><stop offset="0.92" stop-color="#674c2b"/><stop offset="1" stop-color="#674c2b"/></linearGradient><linearGradient id="linear-gradient-33" x1="-1935.11" y1="702.49" x2="-1934.11" y2="702.49" gradientTransform="matrix(-315.85, -369.7, -369.7, 304.69, -350767.27, -929169.42)" xlink:href="#linear-gradient-14"/><linearGradient id="linear-gradient-34" x1="-1932.36" y1="700.84" x2="-1931.36" y2="700.84" gradientTransform="matrix(109.18, -107.24, -107.24, -105.32, 286155.92, -133172.57)" gradientUnits="userSpaceOnUse"><stop offset="0" stop-color="#7f5f39"/><stop offset="1" stop-color="#e9cf98"/></linearGradient><linearGradient id="linear-gradient-35" x1="-1932.89" y1="701.45" x2="-1931.89" y2="701.45" gradientTransform="matrix(147.03, -144.41, -144.41, -141.84, 385495.86, -179411.22)" gradientUnits="userSpaceOnUse"><stop offset="0" stop-color="#7f5f39"/><stop offset="1" stop-color="#e4cb90"/></linearGradient></defs><title>Asset 1</title><g id="Layer_2" data-name="Layer 2"><g id="Layer_1-2" data-name="Layer 1"><path class="cls-1" d="M21.19,232.54l7.07,0L97.78,96.71l-7.07,0L21.19,232.54Z"/><path class="cls-2" d="M452.51,0l-1.12,12.87H592.1c4.62,0,7.21,1.14,9,4.54L616.64,3.8a16.57,16.57,0,0,0-11-3.8Z"/><path class="cls-3" d="M296.62,0a14.19,14.19,0,0,0-10.38,4.65l10.1,10.77s2-2.55,10.1-2.55h145L452.51,0Z"/><path class="cls-4" d="M282.57,12.28V51.5c0,6.16-1.25,7.66-1.25,7.66l11.14,11.63s1.59-4,1.59-6.48V25.45c0-2.45.22-6,.22-6L283.82,6.7a12.38,12.38,0,0,0-1.24,5.58"/><path class="cls-5" d="M607.42,18.23s-.3,4.56-.3,7,.3,35.58.3,38,3.64,7,3.64,7L624.39,58.7s-3.16-1-3.16-7.2V12.28a7.88,7.88,0,0,0-2.8-5.58l-11,11.53Z"/><path class="cls-6" d="M266.88,67l-155.38.16C100.4,67.14,93.87,72,93.87,72L103,84s3.65-4.42,11.71-4.42h162a21.29,21.29,0,0,0,9.88-2.51L276,64.6S270.8,67,266.88,67"/><path class="cls-7" d="M16.9,242.71.35,254.12s-1.31,4.71,1.16,8.44a10.05,10.05,0,0,0,6.26,4.29l21.54-15.11s-12.19-.56-7.12-9.43S27,230.08,27,230.08s-5.92,1-10.1,12.64"/><path class="cls-8" d="M62.35,131.07C49.15,157.75,4.82,243.48,3.27,246.54a61.94,61.94,0,0,0-3.11,8.38l17.09-12.2L97.3,86.07s-21.74,18.3-34.94,45"/><path class="cls-9" d="M29.66,252.1l-22,15.52s250.13.61,256.45.61,9,1.18,9,1.18l11.27-12.57s-10.76-4.73-16.74-4.73h-238Z"/><path class="cls-10" d="M279.52,276.28s2.3,4.55,2.3,8.17v32.48a23.38,23.38,0,0,0,1.84,8.68l11-12.72V274a23.09,23.09,0,0,0-3.49-11.43l-11.65,13.73Z"/><path class="cls-11" d="M600.66,270v38.92l17.25,14.82s.43-3.95.43-8.59v-32.5a15.06,15.06,0,0,1,1.07-5.9L604.32,261.9s-3.66,1.84-3.66,8.07"/><path class="cls-12" d="M587.76,315.37H452.16v18.07h150c5.1,0,11-3.33,12.18-4.18l-17-15.84s-1.12,1.94-9.62,1.94"/><path class="cls-13" d="M288.84,331.19s3.49,2.43,13.25,2.43,150.07-.18,150.07-.18V315.38H307.34a18.28,18.28,0,0,1-4.37-.48Z"/><path class="cls-14" d="M327.79,29.54c-7.85,0-15.7,4.29-15.7,12.85v42c0,8.56-5.24,12-11.34,12H127.12c-7.05,0-12.51,2.89-15.65,8.72-2.57,4.79-45.93,90.15-59.94,117.73-3,6-.38,9.62,7.41,9.62H301.64c10.46,0,12.21,9.43,12.21,18.84v32.61c0,6,6.1,12.86,13.08,12.86H449V29.54H327.79Z"/><path class="cls-15" d="M612.09,255.68l14,14.11s3.49-1.9,19.8-1.9H795a27.4,27.4,0,0,0,7.37-1.53l-78.81-15.63s-91.25.06-95.52,0h-.48a26.6,26.6,0,0,0-15.44,5"/><path class="cls-16" d="M617.34,75.39s6.81,2.24,12.38,2.24H864.48a100.82,100.82,0,0,1,11.31.52l19-11.11a51.77,51.77,0,0,0-12.18-1.71H638.78c-6.09,0-8.63-1.4-8.63-1.4L617.34,75.39Z"/><path class="cls-17" d="M882.71,84.16s1.07,5.85-1,9.83-73,141-76.18,147.33-10.45,8.61-10.45,8.61l8.09,15.88a28.69,28.69,0,0,0,4.56-4.3c1.68-2.15,89-176.64,91.69-182.76s.32-8.34.32-8.34L882.71,84.16Z"/><path class="cls-18" d="M787.59,251.1c-9.32,0-61.74.39-61.74.39l74.55,14.87s4.66-1.89,7-5.72,0-5-2.72-2.67-7.37-1.51-5-4.18,4.66-11.07,4.66-11.07-7.37,8.39-16.7,8.39"/><path class="cls-19" d="M94.07,239.31c-48.82,3.2-64.41,12.27-64.41,12.27H262.8c26.51,0,23.49,3.56,23.34,3.72l19-19.71s-46.11,0-75.41-.53c-3.72-.07-7.9-.1-12.47-.1-31.31,0-80.55,1.57-123.17,4.35m192.06,16h0Z"/><path class="cls-20" d="M644,235.05c-20.74.53-53.4.53-53.4.53l21.77,20.13s2.24-4.71,21.44-4.71,157.69-.47,157.69-.47,2.34-7.44-38.44-10.29C720.92,238,672.45,235,649,235q-2.52,0-5,.05"/><path class="cls-21" d="M594.64,98.45s32.67,0,53.41.53,146.5-5.07,181.09-8.27,45.62-12.26,45.62-12.26-219.87,1.15-239.08,1.15-16.52-3.74-16.52-3.74Z"/><path class="cls-22" d="M292.33,263.13s2.33,7.43,2.33,13.15V302c0,6.86,2.33,10.3,2.33,10.3l19.8-19.46s-3-6.86-3-12v-29a45.39,45.39,0,0,0-1.71-12.17l-19.8,23.46Z"/><path class="cls-23" d="M582.89,251.67c0,6.71-.46,24.67-.46,29.83a71.67,71.67,0,0,1-1.2,11.37L601,312.32s2.34-3.44,2.34-10.3V276.28c0-5.72,2.33-13.15,2.33-13.15l-21.2-24a53.28,53.28,0,0,0-1.6,12.55"/><path class="cls-24" d="M303.4,314.6l144.44,1.14h.58v-19l-125.8-.45L303.4,314.6Z"/><path class="cls-25" d="M449,296.73h-.58v19L596.94,314l-23.88-17.75L449,296.73Z"/><path class="cls-26" d="M305.35,12.76a18,18,0,0,0-7.85,2.16l19.14,18.5s1.89-4,15.38-4H449V12.76H305.35Z"/><path class="cls-27" d="M449,12.76V29.4H566c13.49,0,16.28,5.77,16.28,5.77l19.14-18.49s-4.67-3.92-8.75-3.92Z"/><path class="cls-28" d="M293.85,28.92V62.52a29.57,29.57,0,0,1-1.78,8.71l18.75,20.9s1.27-1.74,1.27-10.44.76-42.79.76-42.79L294.1,18.24s-.25,5.46-.25,10.68"/><path class="cls-29" d="M583.05,39.29V81.06c0,8.71,4.15,11.06,4.15,11.06l22.91-22.67s-3-4.74-3-8.72-.19-28.27-.19-33.5.23-10.05.23-10.05l-24.11,22.1Z"/><path class="cls-30" d="M278.36,80.06H117.61c-4.66,0-12.24,1.72-14.56,4l14.56,14.87s4.07-2.86,14-2.86H298.74a30.81,30.81,0,0,0,9.32-1.73L289.43,75.49s-4.67,4.57-11.07,4.57"/><path class="cls-31" d="M779,233.06s9-3.33,11.82,7.17c0,0,2.25,3.32,8.44-5.53S864,107.65,863.38,106,851,102.11,851,102.11Z"/><path class="cls-32" d="M852.7,103.23c2.82,1.65,5.63,3.87,1.69,12.15s-48.94,94.47-58.49,111-1.14,23.2-1.14,23.2,7.32-3.32,9.52-6.9,70.93-137.28,75.66-146.26,1.45-12.57,1.45-12.57L852.7,103.23Z"/><path class="cls-33" d="M449,29.54V296.73H569.3c7,0,13.08-2.57,13.08-10.29V246.59c0-7.71,5.22-13.69,11.33-13.69H775.17c6.37,0,12.09-3.66,15.4-9.68,14.83-26.93,55.66-105,58.75-111.31,3.77-7.69,1.44-12.14-7.3-12.14H601.55c-10.46,0-18.32-7.7-18.32-17.12V39c0-6-3.49-9.43-11.33-9.43H449Z"/><path class="cls-34" d="M27.69,244.14,51,230.27s-2.67-1.14,1.52-9.38,43.5-87,43.5-87l-8.77-1.86L27.69,244.14Z"/><path class="cls-35" d="M25.59,233.95c-5.83,10.3-4.65,14.3-4.65,14.3l14-9.15s62.32-118.41,68.72-132.14-3.14-19.32-3.14-19.32-69.08,136-74.9,146.32"/><path class="cls-36" d="M35,252.06c-.92.61-9.44,1.64-11.11,0s-4.45-2.9-2.23-4.72S51.3,229.52,51.3,229.52s-3.33,1.82,24.82,1.82H301.27c5.93,0,11.48,4,12.22,6.54s-.74,3.64-2.59,3.28-6.67-1.82-7.78-3.65,1.48-3.27-14.82-3.27-140.72,1.82-168.85,4.36-65.19.73-84.44,13.45M866.62,78.93c.92-.6,9.45-1.63,11.11,0s4.45,2.91,2.22,4.73-29.62,17.82-29.62,17.82,3.32-1.82-24.82-1.82H600.37c-5.92,0-11.48-4-12.21-6.54s.73-3.65,2.58-3.28,6.67,1.82,7.79,3.63-1.49,3.27,14.81,3.27S754,94.94,782.19,92.39s65.18-.73,84.43-13.46M107.71,100c0-2.57,1.45-7.43.29-8.86s2.33-3.15,4.66-1.73,7.28,2.57,7.86,3.72-.29,4-3.49,5.14S110.91,102,106,112.54s-33.2,64.36-33.2,64.36,4.08-8.58,2.33-8.87-5.82,6.87-5.82,6.87L107.71,100Zm194.71-5.06c-2.41.24-3.08-2.35-1-2.69s4.8-.5,7.2-9.77.69-37.4.35-42.45-2.74-11.12.69-13.81,5.83,3,14.75,3,29.16-.67,29.16-.67-28.47,2-33.28,2.69-8.92,4.38-8.24,11.12-1,41.45-2.39,45.16-3.78,7.07-7.22,7.41M494.53,28.75c-3.78.17,72.34.88,77.14.88S582,31.06,583,35.77s.3,20.19.3,20.19,2.36-19.85,5.8-23.55,2.4-9.1-2.06-8.1-39.79,2.11-92.5,4.44M596.17,235.32c-2.39-.35-5.13-.67-5.82,1.35s3.08,3.35-.69,5.36-6.56,3.26-6.56,1.58,1.94-10.32,9.13-10.32,184.6-.33,187.36-.33,6.15.33,7.52,3,3.08,9.41,4.11,11.43-.68,2-3.77-2-10.94-5.71-17.1-5.37-174.18-4.7-174.18-4.7M791.9,241s-1.71-3.69-2.74-6.06-4.1-3.34-4.1-3.34a84.89,84.89,0,0,0,8.2-12.78c4.8-8.73,27.38-50.42,29.77-56.13,0,0-5.13,15.47,4.79,2.69,0,0-32.16,59.82-34.22,63.85S791.9,241,791.9,241M316,288.07s.41,4.83-2.45,6.84-4.09,5.62-1.64,7.24,4.09.8,5.72-1.61,7.37-4.42,11-3.61c0,0-12.69,1.59-12.69-8.85m176.36,8.61s69.05,3.57,73.14,3.76l7,.31s-7.33-1.14-5.16-3.45l-74.94-.62Zm81.84-.56s-2,3.21,1.23,4.81,6.56,3.21,8.6.8-1.64-8.84-1.23-13.26c0,0,1.64,6.84-8.6,7.64"/><path d="M658.39,301.94h-3.82v6.36h3.82c1.95,0,2.52-.76,2.52-2v-2.36c0-1.61-.76-2-2.52-2m0,8.43h-3.82v5.24h-2.33V299.84h6.15c3.48,0,4.85,1.52,4.85,4.1v2.36a3.51,3.51,0,0,1-2.33,3.62l4.31,5.69h-2.75l-4.09-5.24Zm-.72,10c8.21,0,12.52-5.53,12.52-12.31s-4.31-12.4-12.52-12.4S645,301.3,645,308.08s4.41,12.31,12.63,12.31m0-26.79c9.1,0,14.66,6.46,14.66,14.45s-5.56,14.44-14.66,14.44-14.76-6.56-14.76-14.44,5.61-14.45,14.76-14.45M189.58,397.47H164.18V365.71H139.65v79h24.52v-34h25.41v34h24.55v-79H189.58v31.77Zm451.09,34.05V365.7H616.15v79h59.63V431.52ZM780.12,365.7v13.17h22.32v65.79H827V378.88H849.3V365.7H780.12ZM51.17,382.14c0-9.87,6.07-16.44,15.17-16.44h49.19v13.16H80.27c-2.74,0-4.54,2-4.54,4.95v42.76c0,3,1.8,5,4.54,5h35.26v13.14H66.35c-9.1,0-15.17-6.59-15.17-16.44ZM477.8,412.63l21.2,32H472.93l-18.77-32.57V401.8h10.13c2.73,0,4.55-2,4.55-4.95V383.8c0-2.95-1.82-4.93-4.55-4.93H447.13v65.79H422.59v-79h55.61c9.13,0,15.17,6.57,15.17,16.44l0,16c0,8.7-5.34,14.53-13.4,14.53h-2.2Zm85,18.89c2.71,0,4.54-2,4.54-4.94V383.8c0-2.94-1.82-4.94-4.54-4.94H545.72c-2.73,0-4.56,2-4.56,4.94v42.78c0,3,1.83,4.94,4.56,4.94Zm-46.2-49.38c0-9.87,6-16.44,15.16-16.44h44.95c9.09,0,15.18,6.57,15.18,16.44v46.08c0,9.86-6.08,16.44-15.18,16.44H531.79c-9.11,0-15.16-6.59-15.16-16.44V382.14ZM323.28,365.7h26.31l15.7,61a1.12,1.12,0,0,0,2.18,0l15.26-61h20.59l-19,67.76c-2.3,7.71-6.46,11.2-15.2,11.2H356.86c-5.62,0-10.2-2.85-12.95-11.26l-20.64-67.7ZM263.46,429a2.24,2.24,0,0,0,2.28,2.48h40.31v13.16h-52c-9.1,0-15.16-6.59-15.16-16.43V382.15c0-9.87,6.07-16.45,15.16-16.45h52v13.17H265.74a2.24,2.24,0,0,0-2.29,2.47v16.11h38v13.17h-38V429Zm454,0a2.23,2.23,0,0,0,2.25,2.48H760v13.16H708c-9.09,0-15.19-6.59-15.19-16.43V382.15c0-9.87,6.1-16.45,15.19-16.45h52v13.17H719.66a2.23,2.23,0,0,0-2.25,2.47v16.11h37.95v13.17H717.41V429Z"/></g></g></svg>