<svg xmlns="http://www.w3.org/2000/svg" xmlns:xlink="http://www.w3.org/1999/xlink" viewBox="0 0 352.98 249.64"><defs><style>.cls-1{fill:none;}.cls-2{fill:#d7172f;}.cls-3{fill:#231f20;}.cls-4{clip-path:url(#clip-path);}.cls-5{fill:url(#linear-gradient);}.cls-6{clip-path:url(#clip-path-2);}.cls-7{fill:url(#linear-gradient-2);}.cls-8{clip-path:url(#clip-path-3);}.cls-9{fill:url(#linear-gradient-3);}.cls-10{clip-path:url(#clip-path-4);}.cls-11{fill:url(#linear-gradient-4);}.cls-12{clip-path:url(#clip-path-5);}.cls-13{fill:url(#linear-gradient-5);}.cls-14{clip-path:url(#clip-path-6);}.cls-15{fill:url(#linear-gradient-6);}.cls-16{clip-path:url(#clip-path-7);}.cls-17{fill:url(#linear-gradient-7);}.cls-18{clip-path:url(#clip-path-8);}.cls-19{fill:url(#linear-gradient-8);}</style><clipPath id="clip-path"><path class="cls-1" d="M160.1,44.24c-24.53,1.41-54.86,21.62-56,22.43a379.16,379.16,0,0,0-29.42,27c-.22,4.79.41,15.16.41,15.22s.07,3.75,2.74,1.35l2.67-2.37c28.76-26.3,58.29-49.34,81.95-59.58,1.69-.73,4.44-1.22,3-3-.66-.83-2.67-1.06-4.34-1.06-.37,0-.72,0-1,0"/></clipPath><linearGradient id="linear-gradient" x1="-127.04" y1="554.51" x2="-122.79" y2="554.51" gradientTransform="matrix(47.75, 0, 0, -47.75, 6140.27, 26553.55)" gradientUnits="userSpaceOnUse"><stop offset="0" stop-color="#b1adb2"/><stop offset="0.11" stop-color="#a7a3a8"/><stop offset="0.31" stop-color="#8d888d"/><stop offset="0.5" stop-color="#6d676c"/><stop offset="0.59" stop-color="#857f84"/><stop offset="0.77" stop-color="#b1acb0"/><stop offset="0.91" stop-color="#ccc8cc"/><stop offset="0.99" stop-color="#d6d2d6"/><stop offset="1" stop-color="#d6d2d6"/></linearGradient><clipPath id="clip-path-2"><path class="cls-1" d="M187.49,45.27c-1.44,1.81,1.33,2.3,3,3,23.67,10.24,53.2,33.28,82,59.58l2.66,2.37c2.68,2.4,2.74-1.35,2.74-1.35s.63-10.43.42-15.22a382.84,382.84,0,0,0-29.42-27c-1.12-.8-31.44-21-56-22.43-.32,0-.67,0-1,0-1.68,0-3.68.23-4.33,1.06"/></clipPath><linearGradient id="linear-gradient-2" x1="-127.04" y1="554.51" x2="-122.79" y2="554.51" gradientTransform="matrix(47.75, 0, 0, -47.75, 6140.09, 26553.63)" xlink:href="#linear-gradient"/><clipPath id="clip-path-3"><path class="cls-1" d="M160.1,116.51c-24.53,1.41-54.86,21.63-56,22.44a377.33,377.33,0,0,0-29.42,27c-.22,4.79.41,15.16.41,15.22s.07,3.75,2.74,1.35l2.67-2.37c28.76-26.31,58.29-49.34,81.95-59.58,1.69-.73,4.44-1.22,3-3-.66-.83-2.67-1.06-4.35-1.06-.37,0-.71,0-1,0"/></clipPath><linearGradient id="linear-gradient-3" x1="-127.04" y1="553.35" x2="-122.79" y2="553.35" gradientTransform="matrix(47.75, 0, 0, -47.75, 6140.27, 26570.55)" xlink:href="#linear-gradient"/><clipPath id="clip-path-4"><path class="cls-1" d="M187.49,117.55c-1.44,1.81,1.33,2.3,3,3,23.67,10.24,53.2,33.27,82,59.58l2.66,2.37c2.68,2.4,2.74-1.35,2.74-1.35s.63-10.43.42-15.22a381,381,0,0,0-29.42-27c-1.12-.81-31.44-21-56-22.44-.32,0-.67,0-1,0-1.67,0-3.68.23-4.35,1.06"/></clipPath><linearGradient id="linear-gradient-4" x1="-127.04" y1="553.35" x2="-122.79" y2="553.35" gradientTransform="matrix(47.75, 0, 0, -47.75, 6140.09, 26570.63)" xlink:href="#linear-gradient"/><clipPath id="clip-path-5"><path class="cls-1" d="M81.18,79.42c-.07.08-5.83,6.64-6.47,14.25a379.16,379.16,0,0,1,29.42-27S108.48,63,115,58.09c14.51-10.92,40.11-28,61.46-28s47,17.08,61.46,28c6.55,4.93,10.91,8.59,10.91,8.58a382.84,382.84,0,0,1,29.42,27c-.65-7.62-6.39-14.17-6.48-14.25-.86-1-71.23-78.12-95.31-78.12S82,78.46,81.18,79.42"/></clipPath><linearGradient id="linear-gradient-5" x1="-127.05" y1="555.04" x2="-122.8" y2="555.04" gradientTransform="matrix(47.6, 0, 0, -47.6, 6122.71, 26468.1)" gradientUnits="userSpaceOnUse"><stop offset="0" stop-color="#6d676c"/><stop offset="0.08" stop-color="#948f93"/><stop offset="0.17" stop-color="#bab7b9"/><stop offset="0.26" stop-color="#d8d6d8"/><stop offset="0.34" stop-color="#eeeded"/><stop offset="0.43" stop-color="#fbfafb"/><stop offset="0.5" stop-color="#fff"/><stop offset="0.57" stop-color="#fafafa"/><stop offset="0.65" stop-color="#ecebec"/><stop offset="0.74" stop-color="#d5d3d4"/><stop offset="0.84" stop-color="#b4b1b3"/><stop offset="0.94" stop-color="#8a8589"/><stop offset="1" stop-color="#6d676c"/></linearGradient><clipPath id="clip-path-6"><path class="cls-1" d="M81.18,151.7c-.07.09-5.83,6.64-6.47,14.25a377.33,377.33,0,0,1,29.42-27s4.35-3.66,10.9-8.59c14.51-10.92,40.11-28,61.46-28s47,17.08,61.46,28c6.55,4.93,10.91,8.59,10.91,8.59a381,381,0,0,1,29.42,27c-.65-7.62-6.39-14.17-6.48-14.25-.86-1-71.23-78.12-95.31-78.12S82,150.74,81.18,151.7"/></clipPath><linearGradient id="linear-gradient-6" x1="-127.05" y1="553.87" x2="-122.8" y2="553.87" gradientTransform="matrix(47.6, 0, 0, -47.6, 6122.71, 26485.1)" xlink:href="#linear-gradient-5"/><clipPath id="clip-path-7"><path class="cls-1" d="M176.18,5.26c0,14.88.88,17.51,11.12,21.5,1.41.54,39.8,12.07,85.55,58.8l.67.67-.64-1.91C233.41,39,190.3,4.22,178,3.6h-.13a1.66,1.66,0,0,0-1.68,1.66"/></clipPath><linearGradient id="linear-gradient-7" x1="-130.34" y1="565.07" x2="-126.08" y2="565.07" gradientTransform="matrix(22.51, 0, 0, -22.51, 3111.43, 12767.13)" gradientUnits="userSpaceOnUse"><stop offset="0" stop-color="#ecebec"/><stop offset="0" stop-color="#ebeaeb"/><stop offset="0.07" stop-color="#bebbbe"/><stop offset="0.13" stop-color="#9b979a"/><stop offset="0.19" stop-color="#827c81"/><stop offset="0.24" stop-color="#726d71"/><stop offset="0.28" stop-color="#6d676c"/><stop offset="0.39" stop-color="#746e73"/><stop offset="0.54" stop-color="#878287"/><stop offset="0.59" stop-color="#8e898e"/><stop offset="1" stop-color="#6d676c"/></linearGradient><clipPath id="clip-path-8"><path class="cls-1" d="M176.18,77.53c0,14.88.88,17.51,11.12,21.5,1.41.55,39.8,12.07,85.55,58.8l.67.67-.64-1.91C233.41,111.3,190.3,76.5,178,75.87h-.13a1.66,1.66,0,0,0-1.68,1.66"/></clipPath><linearGradient id="linear-gradient-8" x1="-130.39" y1="562.61" x2="-126.13" y2="562.61" gradientTransform="matrix(22.51, 0, 0, -22.51, 3112.17, 12784.21)" xlink:href="#linear-gradient-7"/></defs><title>Asset 1</title><g id="Layer_2" data-name="Layer 2"><g id="Layer_1-2" data-name="Layer 1"><path class="cls-2" d="M229.39,216.19c-8.68-.19-17.49,0-17.57,0-10.59,0-19.21,7.35-19.21,16.38s8.62,16.63,19.22,16.63c.07,0,8.88.18,17.57,0,10.62,0,19.26-7.46,19.26-16.63,0-8.94-8.46-16.13-19.26-16.37m-5.95,28.47s-3.17.08-5.57,0c-6.1,0-12.69-4.6-12.69-12s6.45-11.78,12.65-11.78c.08,0,3.11-.14,5.59,0,6.24,0,12.69,4.41,12.69,11.78s-6.59,12-12.68,12"/><path class="cls-2" d="M342.18,248.77H353V233c0-9.19-8.23-16.39-18.73-16.39H306.92c-.45,0-1.49.12-1.49,1.2v29.7a1.15,1.15,0,0,0,1.15,1.22H318V223.92a1.57,1.57,0,0,1,1.64-1.62h12.58c3.49,0,8.64,3.13,8.64,9.94v15.28a1.27,1.27,0,0,0,1.32,1.26"/><path class="cls-2" d="M114.11,223H131v-5.12a1.21,1.21,0,0,0-1.22-1.26h-47a1.22,1.22,0,0,0-1.22,1.24V223H92.78a7.12,7.12,0,0,1,7,7v17.54a1.26,1.26,0,0,0,1.24,1.22h11.4v-24.1a1.65,1.65,0,0,1,1.65-1.64"/><path class="cls-2" d="M62.16,247.55a1.26,1.26,0,0,0,1.24,1.22H74.78v-30.9a1.27,1.27,0,0,0-1.25-1.23H63.39a1.24,1.24,0,0,0-1.23,1.22Z"/><path class="cls-2" d="M174.84,248.78h12.54c-.33-8.32-9.32-11.76-9.32-11.76h0c5.64-1.3,9.28-5.35,9.28-10,0-5-4.87-10.34-12.74-10.34H144.29a6.48,6.48,0,0,0-6.55,6.56v24.34a1.17,1.17,0,0,0,1.2,1.22h11.39V237.38h10.74c9.56,0,13.49,6.9,13.79,11.39m-24.53-17.08v-6.42a2.87,2.87,0,0,1,3-3h16.77a4.7,4.7,0,1,1-.06,9.39Z"/><path class="cls-2" d="M43,227.43H55.27c-2.66-6.72-10.36-11.47-18.48-11.49-4.45,0-12.38-.26-17.56,0-6.05.3-9.86,1.69-13.58,4.93A15.61,15.61,0,0,0,0,232.67c0,9.19,8.17,16.39,19,16.78,7.43.26,8.22.27,18,0,9-.27,15.5-4.35,18.29-11.48H43a1.15,1.15,0,0,0-1.05.61,12.76,12.76,0,0,1-11,6.19c-1.59,0-3.74,0-5.7,0-6.38-.06-12.69-4.54-12.69-12.1s6.49-12,12.71-12c.71,0,3.23-.11,5.53,0A13.05,13.05,0,0,1,42,226.84a1.19,1.19,0,0,0,1,.59"/><path class="cls-2" d="M298.67,243H269a1.59,1.59,0,0,1-1.7-1.61v-6.12H293v-5.64H267.24V224a1.68,1.68,0,0,1,1.91-1.62h29.51v-4.5c0-1.32-1.4-1.26-1.44-1.26H255.89a1.2,1.2,0,0,0-1.26,1.26v24.33a6.51,6.51,0,0,0,6.61,6.53h36.19a1.26,1.26,0,0,0,1.24-1.2Z"/><path class="cls-2" d="M289.42,205A8.2,8.2,0,0,0,285,203.9a8.3,8.3,0,0,0-4.38,1.11c-1.14.72-2.07,1.69-3.44,1.69s-2.18-1-3.41-1.69a8.44,8.44,0,0,0-4.37-1.11,8.2,8.2,0,0,0-4.37,1.11,2.87,2.87,0,0,0,0,5.34,9.33,9.33,0,0,0,8.65.08c1.09-.66,2.27-1.76,3.51-1.76s2.35,1,3.45,1.67a8.32,8.32,0,0,0,4.37,1.11,8.15,8.15,0,0,0,4.41-1.11,2.89,2.89,0,0,0,0-5.34"/><path class="cls-3" d="M176.49,49.76c26.36,0,90,54.64,98,61.58a3.14,3.14,0,0,0,2.66.92c2-.23,2.05-3.26,2.05-3.26s.46-6.94.46-13.94c0-8.81-6.87-16.51-6.87-16.51S201.46,0,176.49,0,80.21,78.55,80.21,78.55s-6.88,7.7-6.88,16.51c0,7,.47,13.94.47,13.94s0,3,2,3.26a3.14,3.14,0,0,0,2.67-.92c8-6.94,71.61-61.58,98-61.58"/><path class="cls-3" d="M176.49,122c26.36,0,90,54.64,98,61.58a3.17,3.17,0,0,0,2.66.92c2-.23,2.05-3.27,2.05-3.27s.46-6.94.46-13.93c0-8.81-6.87-16.51-6.87-16.51s-71.31-78.56-96.28-78.56-96.27,78.56-96.27,78.56-6.88,7.7-6.88,16.51c0,7,.47,13.93.47,13.93s0,3,2,3.27a3.17,3.17,0,0,0,2.67-.92c8-6.94,71.61-61.58,98-61.58"/><g class="cls-4"><rect class="cls-5" x="74.49" y="44.21" width="92.43" height="68.44"/></g><g class="cls-6"><rect class="cls-7" x="186.05" y="44.21" width="92.44" height="68.44"/></g><g class="cls-8"><rect class="cls-9" x="74.49" y="116.49" width="92.43" height="68.44"/></g><g class="cls-10"><rect class="cls-11" x="186.05" y="116.49" width="92.44" height="68.44"/></g><g class="cls-12"><rect class="cls-13" x="74.71" y="1.3" width="203.57" height="92.37"/></g><g class="cls-14"><rect class="cls-15" x="74.71" y="73.58" width="203.57" height="92.37"/></g><g class="cls-16"><rect class="cls-17" x="175.33" y="2.62" width="99.01" height="84.59" transform="translate(-0.86 4.56) rotate(-1.16)"/></g><g class="cls-18"><rect class="cls-19" x="175.33" y="74.89" width="99.01" height="84.59" transform="translate(-2.33 4.58) rotate(-1.16)"/></g></g></g></svg>