<?xml version="1.0" encoding="UTF-8"?>
<!-- Generated by Pixelmator Pro 3.5.7 -->
<svg width="286" height="81" viewBox="0 0 286 81" xmlns="http://www.w3.org/2000/svg">
    <path id="Path" fill="#000000" stroke="none" d="M 88.285004 56.044006 C 91.458 56.044006 93.986 58.623001 93.986 61.848007 C 93.986 65.124008 91.458 67.678009 88.259003 67.678009 C 85.085999 67.678009 82.505997 65.124008 82.505997 61.848007 C 82.505997 58.623001 85.085999 56.044006 88.259003 56.044006 L 88.285004 56.044006 Z M 88.259003 56.945007 C 85.705002 56.945007 83.614998 59.138 83.614998 61.847 C 83.614998 64.606003 85.705002 66.772995 88.283997 66.772995 C 90.863998 66.800003 92.928001 64.606003 92.928001 61.874008 C 92.928001 59.139008 90.863998 56.945007 88.283997 56.945007 L 88.259003 56.945007 Z M 87.175003 65.225998 L 86.143997 65.225998 L 86.143997 58.751999 C 86.685997 58.673004 87.202003 58.596008 87.974998 58.596008 C 88.955002 58.596008 89.599998 58.803009 89.987 59.085999 C 90.374001 59.369003 90.580002 59.809006 90.580002 60.428009 C 90.580002 61.279007 90.012001 61.794998 89.316002 62.001007 L 89.316002 62.053009 C 89.883003 62.156998 90.271004 62.671997 90.399002 63.626007 C 90.554001 64.632996 90.709 65.020004 90.810997 65.225998 L 89.727997 65.225998 C 89.573997 65.020004 89.417999 64.427002 89.290001 63.576004 C 89.136002 62.751007 88.722 62.44101 87.897003 62.44101 L 87.174004 62.44101 L 87.174004 65.225998 Z M 87.175003 61.641006 L 87.924004 61.641006 C 88.776001 61.641006 89.497002 61.332001 89.497002 60.531998 C 89.497002 59.964996 89.084 59.397003 87.924004 59.397003 C 87.588997 59.397003 87.357002 59.423996 87.175003 59.449997 L 87.175003 61.641006 Z"/>
    <path id="path1" fill="#000000" stroke="#000000" d="M 29.948999 26.544994 C 38.542999 9.955002 28.153999 1.576004 28.153999 1.576004 L 0.5 1.576004 L 0.5 51.604996 L 28.419001 51.604996 C 40.868 39.326992 29.948999 26.544994 29.948999 26.544994 Z M 21.653999 41.460003 L 12.293 41.460003 L 12.293 31.501003 L 21.177999 31.501003 C 21.177999 31.501003 24.367001 34.775997 21.653999 41.460003 Z M 21.684 21.706005 L 12.323 21.706005 L 12.323 11.747009 L 21.208 11.747009 C 21.207001 11.747009 24.396 15.022003 21.684 21.706005 Z"/>
    <path id="path2" fill="#000000" stroke="#000000" d="M 66.972 51.604996 L 78.834 51.604996 L 67.474998 1.576004 L 48.384998 1.576004 L 36.039001 51.604996 L 48.359001 51.604996 L 50.394001 43.531002 L 64.928001 43.531002 L 66.972 51.604996 Z M 53.153999 32.572994 L 57.643002 14.753006 L 62.153999 32.572994 L 53.153999 32.572994 Z"/>
    <path id="path3" fill="#000000" stroke="#000000" d="M 192.908997 51.604996 L 204.770004 51.604996 L 193.410995 1.576004 L 174.320999 1.576004 L 161.975006 51.604996 L 174.294998 51.604996 L 176.330002 43.531002 L 190.863998 43.531002 L 192.908997 51.604996 Z M 179.091003 32.572994 L 183.580002 14.753006 L 188.091003 32.572994 L 179.091003 32.572994 Z"/>
    <path id="path4" fill="#000000" stroke="#000000" d="M 107.103996 32.863003 C 106.606003 31.943005 107.547997 31.729992 107.547997 31.729992 L 114.037003 31.673992 C 114.037003 31.673992 117.754997 25.232998 117.754997 16.615005 C 117.754997 8.421997 114.037003 1.542 114.037003 1.542 L 82.318001 1.542 L 82.318001 51.667007 L 94.259003 51.667007 L 94.259003 32.861996 L 96.279999 32.861996 L 121.875999 80.317001 L 130.281006 75.686005 L 107.103996 32.863003 Z M 104.874001 22.665005 L 94.700996 22.665005 L 94.700996 11.242004 L 104.867996 11.242004 C 104.867996 11.242004 107.265999 15.790009 104.874001 22.665005 Z"/>
    <path id="path5" fill="#000000" stroke="#000000" d="M 152.563995 1.542999 L 123.385002 1.542999 L 123.32 51.606003 L 152.565002 51.606003 C 152.565002 51.606003 160.022003 42.216991 160.022003 26.589001 C 160.020996 12.063995 152.563995 1.542999 152.563995 1.542999 Z M 143.962006 41.307995 L 136.289001 41.307995 L 136.289001 11.479996 L 143.962006 11.479996 C 143.962006 11.479996 148.220001 17.764996 148.220001 26.393993 C 148.220001 36.898998 143.962006 41.307995 143.962006 41.307995 Z"/>
    <path id="path6" fill="#000000" stroke="#000000" d="M 233.957993 1.576004 L 233.957993 20.868999 L 221.242996 20.868999 L 221.242996 1.576004 L 208.360992 1.576004 L 208.360992 51.604996 L 221.242996 51.604996 L 221.242996 32.337002 L 233.957993 32.337002 L 233.957993 51.604996 L 246.839996 51.604996 L 246.839996 1.576004 Z"/>
    <path id="path7" fill="#000000" stroke="#000000" d="M 267.683014 40.238995 L 267.683014 1.576004 L 254.800995 1.576004 L 254.800995 51.604996 L 263.739014 51.604996 L 267.683014 51.604996 L 286.201996 51.604996 L 286.201996 40.238995 Z"/>
</svg>
