<svg xmlns="http://www.w3.org/2000/svg" viewBox="0 0 286.702 200.713"><path fill="#fff" stroke="#000" stroke-width="2" d="M29.735 14.952s20.268 8.037 36.122 4.874c0 0 12.287-1.252 38.078-12.792 0 0 28.275-13.575 48.411 0l52.257 95.249s-12.121-26.286-45.347-16.546c0 0-27.813 11.472-46.753 17.641 0 0-23.725 7.954-39.787-2.904l-42.981-85.522z"/><path d="M88.285 175.757c3.173 0 5.701 2.579 5.701 5.804 0 3.276-2.528 5.83-5.727 5.83-3.173 0-5.753-2.554-5.753-5.83 0-3.225 2.58-5.804 5.753-5.804h.026zm-.026.901c-2.554 0-4.644 2.193-4.644 4.902 0 2.759 2.09 4.926 4.669 4.926 2.58.027 4.644-2.167 4.644-4.899 0-2.735-2.064-4.929-4.644-4.929h-.025zm-1.084 8.281h-1.031v-6.474c.542-.079 1.058-.156 1.831-.156.98 0 1.625.207 2.012.49s.593.723.593 1.342c0 .851-.568 1.367-1.264 1.573v.052c.567.104.955.619 1.083 1.573.155 1.007.31 1.394.412 1.6h-1.083c-.154-.206-.31-.799-.438-1.65-.154-.825-.568-1.135-1.393-1.135h-.723v2.785zm0-3.585h.749c.852 0 1.573-.309 1.573-1.109 0-.567-.413-1.135-1.573-1.135-.335 0-.567.027-.749.053v2.191z"/><polygon fill-rule="evenodd" clip-rule="evenodd" points="27.292,7.105 23.222,9.367 83.621,128.146 87.014,123.621"/><path d="M114.064 106.316h2.298c1.321 5.643 1.45 6.361 1.637 7.538h.029c.187-1.076.344-2.125 1.436-7.538h2.283c1.206 5.657 1.307 6.203 1.536 7.538h.029c.172-.977.345-1.866 1.68-7.538h2.182l-2.9 10.31h-2.067c-1.063-5.055-1.249-6.06-1.594-8.041h-.029c-.316 1.981-.488 2.729-1.594 8.041h-2.01l-2.916-10.31zm18.908-.272c1.364 0 4.954.589 4.954 5.428s-3.589 5.427-4.954 5.427-4.954-.588-4.954-5.427 3.59-5.428 4.954-5.428zm0 9.031c1.163 0 2.8-.718 2.8-3.604 0-2.887-1.637-3.604-2.8-3.604s-2.8.718-2.8 3.604 1.637 3.604 2.8 3.604zm6.674-8.759h5.212c2.742 0 3.245 2.024 3.245 2.915 0 1.134-.574 2.11-1.594 2.455.848.373 1.307.689 1.307 2.613 0 1.508 0 1.881.46 2.054v.272h-2.384c-.144-.488-.229-1.02-.229-2.082 0-1.407-.087-1.953-1.681-1.953h-2.226v4.035h-2.11v-10.309zm4.638 4.538c1.12 0 1.666-.388 1.666-1.407 0-.545-.244-1.35-1.508-1.35h-2.686v2.757h2.528zm7.881 3.906h5.126v1.866h-7.28v-10.31h2.154v8.444zm6.617-8.444h4.552c3.475 0 4.193 2.958 4.193 4.911 0 2.211-.876 5.398-4.279 5.398h-4.466v-10.309zm2.112 8.53h2.096c1.752 0 2.341-1.767 2.341-3.461 0-3.044-1.45-3.288-2.369-3.288h-2.067v6.749zm14.398 1.78h-2.154v-10.31h7.338v1.823h-5.184v2.326h4.537v1.824h-4.537v4.337zm7.293 0h-2.269l3.676-10.31h2.484l3.633 10.31h-2.341l-.66-2.125h-3.806l-.717 2.125zm1.292-3.905h2.628l-1.277-4.078h-.029l-1.322 4.078zm17.501 3.905h-2.011v-8.615h-.028l-1.924 8.615h-2.111l-1.881-8.615h-.028v8.615h-2.01v-10.31h3.144l1.867 8.127h.028l1.838-8.127h3.116v10.31zm6.56-10.582c1.363 0 4.953.589 4.953 5.428s-3.59 5.427-4.953 5.427c-1.364 0-4.954-.588-4.954-5.427s3.589-5.428 4.954-5.428zm0 9.031c1.162 0 2.8-.718 2.8-3.604 0-2.887-1.638-3.604-2.8-3.604-1.163 0-2.801.718-2.801 3.604s1.637 3.604 2.801 3.604zm14.93-2.053c0 2.713-1.637 3.876-4.236 3.876-.947 0-2.354-.229-3.273-1.249-.56-.632-.775-1.465-.804-2.498v-6.835h2.196v6.691c0 1.436.833 2.067 1.838 2.067 1.479 0 2.082-.718 2.082-1.967v-6.792h2.197v6.707zm3.645.431c.014.574.301 1.665 2.183 1.665 1.019 0 2.153-.244 2.153-1.335 0-.805-.775-1.02-1.866-1.278l-1.106-.258c-1.665-.388-3.273-.762-3.273-3.03 0-1.148.617-3.173 3.963-3.173 3.159 0 4.006 2.067 4.021 3.331h-2.067c-.058-.46-.229-1.551-2.111-1.551-.818 0-1.794.302-1.794 1.234 0 .805.66.977 1.091 1.077l2.513.617c1.407.345 2.699.919 2.699 2.771 0 3.102-3.158 3.374-4.063 3.374-3.762 0-4.408-2.168-4.408-3.445h2.065zm-167.924-92.611l8.376 16.079s9.627 0 23.588-4.525l-8.761-16.463-11.168 3.37-8.568.963-3.467.576zm45.636-13.671l8.665 16.464s12.113-5.349 20.796-5.777l-9.05-16.271-7.798 1.251-6.258 1.926-6.355 2.407zm-53.627 46.214s12.228 1.925 25.417.577l-9.05-17.041s-20.7.578-25.321-.963l8.954 17.427zm39.955-20.989s14.348-5.198 22.337-8.761l8.759 16.464s-10.687 4.909-22.144 9.05l-8.952-16.753zm43.133-14.538s14.826-2.6 26.764 4.814l9.05 16.175s-9.339-7.221-26.958-4.813l-8.856-16.176zm-48.525 53.435s11.457-.097 23.492-5.007l-9.147-17.138s-7.431 2.604-12.769 3.582c-4.838.857-10.722 1.231-10.722 1.231l9.146 17.332zm46.758-35.066c-5.414 1.538-10.27 3.871-10.27 3.871l8.98 17.11s9.651-4.88 21.22-6.36l-9.308-16.814c.001-.001-4.977.49-10.622 2.193zm-64.288 51.185s11.211 2 26.059.363l-8.528-16.482s-17.409 1.393-25.954-.547l8.423 16.666zm49.632-4.971s13.756-5.03 21.816-9.333l-8.45-15.9s-7.544 3.644-12.517 5.578c-5.536 2.263-9.46 3.5-9.46 3.5l8.611 16.155zm43.303-15.87s14.965-2.784 26.728 4.41l-8.56-15.595s-4.798-3.261-12.57-4.537c-7.446-1.161-14.314-.003-14.314-.003l8.716 15.725zm-57.434 39.072l9.371-2.266 13.541-4.693-8.781-16.242s-7.732 2.81-13.375 4.053c-2.483.601-10.199 1.281-10.199 1.281l9.443 17.867zm44.961-15.392l10.875-4.031 5.125-2.031 5.938-.594-9.464-17.023s-4.563.566-10.206 2.201l-11.281 4.336 9.013 17.142z"/><path stroke="#000" stroke-miterlimit="10" d="M29.949 146.258c8.594-16.59-1.795-24.969-1.795-24.969h-27.654v50.029h27.919c12.449-12.278 1.53-25.06 1.53-25.06zm-8.295 14.915h-9.361v-9.959h8.885s3.189 3.275.476 9.959zm.03-19.754h-9.361v-9.959h8.885c-.001 0 3.188 3.275.476 9.959z"/><path stroke="#000" d="M66.972 171.318h11.862l-11.359-50.029h-19.09l-12.346 50.029h12.32l2.035-8.074h14.534l2.044 8.074zm-13.818-19.032l4.489-17.82 4.511 17.82h-9z"/><path stroke="#000" d="M192.909 171.318h11.861l-11.359-50.029h-19.09l-12.346 50.029h12.32l2.035-8.074h14.534l2.045 8.074zm-13.818-19.032l4.489-17.82 4.511 17.82h-9z"/><path stroke="#000" d="M107.104 152.576c-.498-.92.444-1.133.444-1.133l6.489-.056s3.718-6.441 3.718-15.059c0-8.193-3.718-15.073-3.718-15.073h-31.719v50.125h11.941v-18.805h2.021l25.596 47.455 8.405-4.631-23.177-42.823zm-2.23-10.198h-10.173v-11.423h10.167s2.398 4.548.006 11.423z"/><path stroke="#000" stroke-miterlimit="10" d="M152.564 121.256h-29.179l-.065 50.063h29.245s7.457-9.389 7.457-25.017c-.001-14.525-7.458-25.046-7.458-25.046zm-8.602 39.765h-7.673v-29.828h7.673s4.258 6.285 4.258 14.914c0 10.505-4.258 14.914-4.258 14.914z"/><polygon stroke="#000" points="233.958,121.289 233.958,140.582 221.243,140.582 221.243,121.289 208.361,121.289 208.361,171.318 221.243,171.318 221.243,152.05 233.958,152.05 233.958,171.318 246.84,171.318 246.84,121.289"/><polygon stroke="#000" points="267.683,159.952 267.683,121.289 254.801,121.289 254.801,171.318 263.739,171.318 267.683,171.318 286.202,171.318 286.202,159.952"/></svg>
